<?xml version="1.0" encoding="UTF-8" standalone="no"?>
<!DOCTYPE svg PUBLIC "-//W3C//DTD SVG 20010904//EN"
              "http://www.w3.org/TR/2001/REC-SVG-20010904/DTD/svg10.dtd">

<svg xmlns="http://www.w3.org/2000/svg"
     width="4.97778in" height="5.68889in"
     viewBox="0 0 448 512">
  <path id="Selection"
        fill="black" stroke="black" stroke-width="1"
        d="M 52.00,32.12
           C 52.00,32.12 84.00,32.12 84.00,32.12
             84.00,32.12 142.00,32.12 142.00,32.12
             142.00,32.12 318.00,32.12 318.00,32.12
             339.37,32.03 346.98,41.98 361.00,56.00
             361.00,56.00 390.00,85.00 390.00,85.00
             390.00,85.00 423.00,118.00 423.00,118.00
             437.00,132.00 447.97,140.68 448.00,162.00
             448.00,162.00 448.00,420.00 448.00,420.00
             447.95,452.46 419.13,479.95 387.00,480.00
             387.00,480.00 176.00,480.00 176.00,480.00
             176.00,480.00 59.00,480.00 59.00,480.00
             27.85,479.63 0.05,450.99 0.00,420.00
             0.00,420.00 0.00,132.00 0.00,132.00
             0.00,132.00 0.00,92.00 0.00,92.00
             0.03,70.39 13.31,50.05 32.00,39.67
             39.04,35.75 44.22,34.14 52.00,32.12 Z
           M 80.00,80.00
           C 72.55,80.00 61.26,79.11 55.04,83.65
             48.44,88.47 48.01,96.54 48.00,104.00
             48.00,104.00 48.00,147.00 48.00,147.00
             48.00,147.00 48.00,354.00 48.00,354.00
             48.00,354.00 48.00,408.00 48.00,408.00
             48.01,413.54 48.26,420.31 51.65,424.96
             56.47,431.56 64.54,431.99 72.00,432.00
             72.00,432.00 324.00,432.00 324.00,432.00
             324.00,432.00 377.00,432.00 377.00,432.00
             382.22,431.97 388.61,431.53 392.96,428.35
             399.56,423.53 399.99,415.46 400.00,408.00
             400.00,408.00 400.00,175.00 400.00,175.00
             399.99,171.78 400.09,168.05 398.97,165.00
             397.10,159.91 385.35,149.35 381.00,145.00
             381.00,145.00 342.00,106.00 342.00,106.00
             336.19,100.19 326.16,89.41 320.00,85.00
             320.00,85.00 320.00,182.00 320.00,182.00
             319.97,198.46 310.46,207.97 294.00,208.00
             294.00,208.00 130.00,208.00 130.00,208.00
             123.53,208.00 101.77,208.59 97.00,207.21
             90.24,205.26 83.41,198.63 81.11,192.00
             79.88,188.47 80.01,185.64 80.00,182.00
             80.00,182.00 80.00,80.00 80.00,80.00 Z
           M 272.00,80.00
           C 272.00,80.00 128.00,80.00 128.00,80.00
             128.00,80.00 128.00,160.00 128.00,160.00
             128.00,160.00 272.00,160.00 272.00,160.00
             272.00,160.00 272.00,80.00 272.00,80.00 Z
           M 213.00,256.44
           C 233.92,253.76 254.69,258.86 269.91,274.09
             279.66,283.83 287.83,300.03 288.00,314.00
             288.00,314.00 288.00,325.00 288.00,325.00
             287.73,347.52 272.68,367.91 253.00,377.75
             240.17,384.17 232.89,384.16 219.00,384.00
             193.84,383.70 170.49,364.51 162.75,341.00
             159.36,330.70 159.95,325.50 160.00,315.00
             160.04,306.66 162.08,299.45 165.76,292.00
             175.61,272.01 191.20,260.47 213.00,256.44 Z" />
</svg>
